<?xml version="1.0" standalone="no"?>
<!DOCTYPE svg PUBLIC "-//W3C//DTD SVG 20010904//EN"
 "http://www.w3.org/TR/2001/REC-SVG-20010904/DTD/svg10.dtd">
<svg version="1.0" xmlns="http://www.w3.org/2000/svg"
 width="145.000000pt" height="145.000000pt" viewBox="0 0 145.000000 145.000000"
 preserveAspectRatio="xMidYMid meet">
<metadata>
Created by potrace 1.14, written by Peter Selinger 2001-2017
</metadata>
<g transform="translate(0.000000,145.000000) scale(0.100000,-0.100000)"
fill="#000000" stroke="none">
<path d="M239 889 l-135 -78 1 -158 0 -158 95 -57 c52 -32 113 -67 136 -79
l40 -22 132 78 c73 42 132 80 133 84 0 3 2 73 2 154 2 121 -1 151 -13 162 -8
7 -69 44 -136 82 l-120 70 -135 -78z m153 6 c0 -5 -39 -31 -86 -59 -76 -43
-85 -51 -73 -63 16 -16 22 -14 155 66 34 20 58 28 67 23 10 -5 -13 -24 -80
-63 -83 -48 -92 -56 -76 -66 15 -10 34 -2 112 43 52 30 100 54 107 54 30 0 6
-20 -78 -66 -49 -27 -90 -52 -90 -56 0 -4 9 -9 19 -13 13 -4 49 11 108 45 48
28 95 49 103 48 12 -3 15 -26 15 -137 0 -83 -4 -136 -10 -138 -7 -2 -10 36
-10 107 0 79 -3 110 -12 110 -22 0 -26 -23 -26 -132 0 -79 -4 -111 -14 -119
-14 -13 -16 7 -14 149 1 70 1 72 -19 60 -18 -11 -20 -24 -21 -113 -2 -127 -2
-127 -16 -132 -9 -3 -12 22 -11 97 0 55 -2 103 -4 106 -3 2 -12 2 -20 -1 -11
-5 -14 -29 -13 -121 1 -151 1 -152 -136 -73 -115 67 -123 73 -118 88 2 6 24
-2 49 -17 25 -16 66 -40 93 -55 l47 -28 0 23 c0 17 -12 30 -43 47 -104 58
-147 86 -147 98 0 19 12 16 51 -9 19 -13 58 -36 87 -52 53 -28 54 -28 50 -6
-2 17 -27 37 -93 75 -50 29 -92 59 -93 69 -4 18 39 -2 146 -66 18 -11 35 -18
38 -15 17 16 -16 47 -96 92 -120 67 -120 73 18 152 102 59 132 69 134 48z"/>
<path d="M710 656 c0 -170 2 -195 16 -200 35 -14 41 9 41 162 0 82 3 154 7
160 10 16 53 15 63 0 4 -7 8 -45 9 -84 1 -81 6 -94 34 -87 17 5 20 15 22 92
l3 86 35 0 35 0 3 -161 c2 -148 4 -162 21 -167 39 -10 41 2 39 199 l-3 189
-162 3 -163 2 0 -194z"/>
<path d="M1197 843 c-4 -3 -7 -75 -7 -158 0 -169 -2 -173 -62 -170 -21 1 -39
-1 -39 -4 -5 -24 -5 -51 0 -52 3 -1 37 -2 74 -3 53 -2 70 1 76 13 6 12 8 337
2 374 -1 9 -35 9 -44 0z"/>
</g>
</svg>
